0
SECTION
2
HEADER
9
$INSUNITS
70
4
9
$ACADVER
1
AC1014
9
$HANDSEED
5
FFFF
0
ENDSEC
0
SECTION
2
TABLES
0
TABLE
2
VPORT
5
8
100
AcDbSymbolTable
0
ENDTAB
0
TABLE
2
LTYPE
5
5
100
AcDbSymbolTable
0
LTYPE
5
14
100
AcDbSymbolTableRecord
100
AcDbLinetypeTableRecord
2
BYBLOCK
70
0
0
LTYPE
5
15
100
AcDbSymbolTableRecord
100
AcDbLinetypeTableRecord
2
BYLAYER
70
0
0
ENDTAB
0
TABLE
2
LAYER
5
2
100
AcDbSymbolTable
70
2
0
LAYER
5
50
100
AcDbSymbolTableRecord
100
AcDbLayerTableRecord
2
0
70
0
6
CONTINUOUS
0
ENDTAB
0
TABLE
2
STYLE
5
3
100
AcDbSymbolTable
70
1
0
STYLE
5
11
100
AcDbSymbolTableRecord
100
AcDbTextStyleTableRecord
2
STANDARD
70
0
0
ENDTAB
0
TABLE
2
VIEW
5
6
100
AcDbSymbolTable
70
0
0
ENDTAB
0
TABLE
2
UCS
5
7
100
AcDbSymbolTable
70
0
0
ENDTAB
0
TABLE
2
APPID
5
9
100
AcDbSymbolTable
70
2
0
APPID
5
12
100
AcDbSymbolTableRecord
100
AcDbRegAppTableRecord
2
ACAD
70
0
0
ENDTAB
0
TABLE
2
DIMSTYLE
5
A
100
AcDbSymbolTable
70
1
0
ENDTAB
0
TABLE
2
BLOCK_RECORD
5
1
100
AcDbSymbolTable
70
1
0
BLOCK_RECORD
5
1F
100
AcDbSymbolTableRecord
100
AcDbBlockTableRecord
2
*MODEL_SPACE
0
BLOCK_RECORD
5
1B
100
AcDbSymbolTableRecord
100
AcDbBlockTableRecord
2
*PAPER_SPACE
0
ENDTAB
0
ENDSEC
0
SECTION
2
BLOCKS
0
BLOCK
5
20
100
AcDbEntity
100
AcDbBlockBegin
2
*MODEL_SPACE
0
ENDBLK
5
21
100
AcDbEntity
100
AcDbBlockEnd
0
BLOCK
5
1C
100
AcDbEntity
100
AcDbBlockBegin
2
*PAPER_SPACE
0
ENDBLK
5
1D
100
AcDbEntity
100
AcDbBlockEnd
0
ENDSEC
0
SECTION
2
ENTITIES
0
ARC
5
100
100
AcDbEntity
8
0
100
AcDbCircle
10
-11.000000000000018
20
-57.965506984757752
30
0
40
1.0000000000000098
210
0
220
0
230
1
100
AcDbArc
50
259.2548613401562
51
360
0
LINE
5
101
100
AcDbEntity
8
0
100
AcDbLine
10
-10.000000000000009
20
-57.965506984757759
30
0
11
-10
21
-47.491271221051335
31
0
0
ARC
5
102
100
AcDbEntity
8
0
100
AcDbCircle
10
-9.0000000000000018
20
-47.491271221051335
30
0
40
0.99999999999999878
210
0
220
0
230
1
100
AcDbArc
50
118.81079374297319
51
180
0
LINE
5
103
100
AcDbEntity
8
0
100
AcDbLine
10
-9.4819187497721575
20
-46.615055312374693
30
0
11
-2.2250619842242703
21
-42.623784091323344
31
0
0
ARC
5
104
100
AcDbEntity
8
0
100
AcDbCircle
10
-1.7431432344521136
20
-43.499999999999986
30
0
40
0.99999999999999645
210
0
220
-0
230
1
100
AcDbArc
50
89.999999999999986
51
118.81079374297325
0
LINE
5
105
100
AcDbEntity
8
0
100
AcDbLine
10
-1.7431432344521134
20
-42.499999999999993
30
0
11
1.7431432344521192
21
-42.499999999999993
31
0
0
ARC
5
106
100
AcDbEntity
8
0
100
AcDbCircle
10
1.7431432344521185
20
-43.499999999999986
30
0
40
0.99999999999999933
210
0
220
-0
230
1
100
AcDbArc
50
61.189206257026676
51
89.999999999999972
0
LINE
5
107
100
AcDbEntity
8
0
100
AcDbLine
10
2.2250619842242765
20
-42.623784091323344
30
0
11
9.4819187497721522
21
-46.615055312374679
31
0
0
ARC
5
108
100
AcDbEntity
8
0
100
AcDbCircle
10
8.9999999999999947
20
-47.491271221051328
30
0
40
0.99999999999999978
210
0
220
0
230
1
100
AcDbArc
50
0
51
61.18920625702691
0
LINE
5
109
100
AcDbEntity
8
0
100
AcDbLine
10
9.9999999999999947
20
-47.491271221051328
30
0
11
9.9999999999999982
21
-57.965506984757759
31
0
0
ARC
5
110
100
AcDbEntity
8
0
100
AcDbCircle
10
11.000000000000012
20
-57.965506984757752
30
0
40
1.0000000000000131
210
0
220
0
230
1
100
AcDbArc
50
180
51
280.74513865984386
0
ARC
5
111
100
AcDbEntity
8
0
100
AcDbCircle
10
0
20
0
30
0
40
59.999999999999993
210
0
220
0
230
1
100
AcDbArc
50
153.09308267081295
51
156.5277361804404
0
ARC
5
112
100
AcDbEntity
8
0
100
AcDbCircle
10
54.117926789558375
20
-23.499999999999996
30
0
40
0.99999999999999845
210
0
220
0
230
1
100
AcDbArc
50
-23.472263819560631
51
90.000000000000398
0
LINE
5
113
100
AcDbEntity
8
0
100
AcDbLine
10
54.117926789558368
20
-22.5
30
0
11
48.621488653217341
21
-22.500000000000064
31
0
0
LINE
5
114
100
AcDbEntity
8
0
100
AcDbLine
10
48.621488653217341
20
-22.500000000000064
30
0
11
48.621488653217355
21
-4.9999999999998135
31
0
0
ARC
5
115
100
AcDbEntity
8
0
100
AcDbCircle
10
47.621488653217355
20
-4.9999999999998117
30
0
40
0.99999999999999645
210
0
220
0
230
1
100
AcDbArc
50
0
51
90
0
LINE
5
116
100
AcDbEntity
8
0
100
AcDbLine
10
47.621488653217355
20
-3.9999999999998153
30
0
11
41.321488653217457
21
-3.999999999999809
31
0
0
LINE
5
117
100
AcDbEntity
8
0
100
AcDbLine
10
41.321488653217457
20
-3.999999999999809
30
0
11
41.321488653217536
21
4.0000000000002522
31
0
0
LINE
5
118
100
AcDbEntity
8
0
100
AcDbLine
10
41.321488653217536
20
4.0000000000002522
30
0
11
47.621488653217384
21
3.9999999999998965
31
0
0
ARC
5
119
100
AcDbEntity
8
0
100
AcDbCircle
10
47.621488653217448
20
4.9999999999998828
30
0
40
0.99999999999998646
210
0
220
0
230
1
100
AcDbArc
50
269.99999999999636
51
360
0
LINE
5
120
100
AcDbEntity
8
0
100
AcDbLine
10
48.621488653217433
20
4.9999999999998792
30
0
11
48.621488653217746
21
22.500000000000185
31
0
0
LINE
5
121
100
AcDbEntity
8
0
100
AcDbLine
10
48.621488653217746
20
22.500000000000185
30
0
11
54.117926789558339
21
22.500000000000039
31
0
0
ARC
5
122
100
AcDbEntity
8
0
100
AcDbCircle
10
54.117926789558368
20
23.500000000000032
30
0
40
0.99999999999999201
210
0
220
0
230
1
100
AcDbArc
50
-90.000000000001634
51
23.47226381955954
0
ARC
5
123
100
AcDbEntity
8
0
100
AcDbCircle
10
0
20
0
30
0
40
60.000000000000007
210
0
220
-0
230
1
100
AcDbArc
50
23.472263819559622
51
58.229641245006036
0
ARC
5
124
100
AcDbEntity
8
0
100
AcDbCircle
10
-54.117926789558368
20
23.500000000000036
30
0
40
0.99999999999999134
210
0
220
0
230
1
100
AcDbArc
50
156.52773618044029
51
270.00000000000205
0
LINE
5
125
100
AcDbEntity
8
0
100
AcDbLine
10
-54.117926789558332
20
22.500000000000043
30
0
11
-48.621488653217746
21
22.500000000000185
31
0
0
LINE
5
126
100
AcDbEntity
8
0
100
AcDbLine
10
-48.621488653217746
20
22.500000000000185
30
0
11
-48.62148865321744
21
4.9999999999998801
31
0
0
ARC
5
127
100
AcDbEntity
8
0
100
AcDbCircle
10
-47.621488653217455
20
4.9999999999998828
30
0
40
0.99999999999998757
210
0
220
0
230
1
100
AcDbArc
50
180
51
270.00000000000324
0
LINE
5
128
100
AcDbEntity
8
0
100
AcDbLine
10
-47.621488653217398
20
3.9999999999998952
30
0
11
-41.321488653217536
21
4.0000000000002522
31
0
0
LINE
5
129
100
AcDbEntity
8
0
100
AcDbLine
10
-41.321488653217536
20
4.0000000000002522
30
0
11
-41.321488653217457
21
-3.999999999999809
31
0
0
LINE
5
130
100
AcDbEntity
8
0
100
AcDbLine
10
-41.321488653217457
20
-3.999999999999809
30
0
11
-47.621488653217355
21
-3.9999999999998117
31
0
0
ARC
5
131
100
AcDbEntity
8
0
100
AcDbCircle
10
-47.621488653217355
20
-4.9999999999998099
30
0
40
0.99999999999999811
210
0
220
-0
230
1
100
AcDbArc
50
90
51
180
0
LINE
5
132
100
AcDbEntity
8
0
100
AcDbLine
10
-48.621488653217355
20
-4.9999999999998126
30
0
11
-48.621488653217341
21
-22.500000000000064
31
0
0
LINE
5
133
100
AcDbEntity
8
0
100
AcDbLine
10
-48.621488653217341
20
-22.500000000000064
30
0
11
-54.117926789558368
21
-22.500000000000007
31
0
0
ARC
5
134
100
AcDbEntity
8
0
100
AcDbCircle
10
-54.117926789558368
20
-23.500000000000021
30
0
40
1.0000000000000142
210
0
220
-0
230
1
100
AcDbArc
50
90
51
203.47226381955917
0
ARC
5
135
100
AcDbEntity
8
0
100
AcDbCircle
10
0
20
0
30
0
40
60.000000000000007
210
0
220
0
230
1
100
AcDbArc
50
203.4722638195596
51
259.2548613401558
0
ARC
5
136
100
AcDbEntity
8
0
100
AcDbCircle
10
29.906111287370347
20
48.289382970453339
30
0
40
3.2000000000027478
210
0
220
-0
230
1
100
AcDbArc
50
58.229641245003997
51
89.999999999999929
0
LINE
5
137
100
AcDbEntity
8
0
100
AcDbLine
10
29.906111287370351
20
51.489382970454457
30
0
11
-29.906111287371928
21
51.48938297045558
31
0
0
ARC
5
138
100
AcDbEntity
8
0
100
AcDbCircle
10
-29.906111287371925
20
48.28938297045557
30
0
40
3.2000000000000117
210
0
220
0
230
1
100
AcDbArc
50
90.000000000000057
51
121.77035875499402
0
ARC
5
139
100
AcDbEntity
8
0
100
AcDbCircle
10
0
20
0
30
0
40
60.000000000000007
210
0
220
0
230
1
100
AcDbArc
50
121.77035875499402
51
132.21080005774013
0
LINE
5
140
100
AcDbEntity
8
0
100
AcDbLine
10
-34.223209223044435
20
27.700000000000298
30
0
11
-52.61283113461927
21
27.700000000000685
31
0
0
LINE
5
141
100
AcDbEntity
8
0
100
AcDbLine
10
-39.639752774203423
20
42.700000000000401
30
0
11
-34.223209223044115
21
42.700000000000301
31
0
0
LINE
5
142
100
AcDbEntity
8
0
100
AcDbLine
10
-33.223209223044137
20
41.700000000000287
30
0
11
-33.223209223044414
21
28.700000000000273
31
0
0
ARC
5
143
100
AcDbEntity
8
0
100
AcDbCircle
10
-39.639752774203401
20
43.700000000000394
30
0
40
0.99999999999999445
210
0
220
0
230
1
100
AcDbArc
50
132.21080005774084
51
269.99999999999881
0
ARC
5
144
100
AcDbEntity
8
0
100
AcDbCircle
10
-52.612831134619285
20
26.700000000000678
30
0
40
1.0000000000000053
210
0
220
-0
230
1
100
AcDbArc
50
89.99999999999919
51
153.09308267081175
0
ARC
5
145
100
AcDbEntity
8
0
100
AcDbCircle
10
-34.223209223044137
20
41.700000000000301
30
0
40
0.99999999999999645
210
-0
220
0
230
1
100
AcDbArc
50
0
51
89.999999999998778
0
ARC
5
146
100
AcDbEntity
8
0
100
AcDbCircle
10
-34.223209223044414
20
28.700000000000294
30
0
40
0.99999999999999645
210
0
220
0
230
1
100
AcDbArc
50
269.99999999999881
51
360
0
ARC
5
147
100
AcDbEntity
8
0
100
AcDbCircle
10
0
20
0
30
0
40
60.000000000000007
210
-0
220
0
230
1
100
AcDbArc
50
280.7451386598442
51
336.5277361804404
0
ENDSEC
0
SECTION
2
OBJECTS
0
DICTIONARY
5
C
100
AcDbDictionary
3
ACAD_GROUP
350
D
3
ACAD_MLINESTYLE
350
17
0
DICTIONARY
5
D
100
AcDbDictionary
0
DICTIONARY
5
1A
330
C
100
AcDbDictionary
0
DICTIONARY
5
17
100
AcDbDictionary
0
ENDSEC
0
EOF
