0
SECTION
2
HEADER
9
$INSUNITS
70
4
9
$ACADVER
1
AC1014
9
$HANDSEED
5
FFFF
0
ENDSEC
0
SECTION
2
TABLES
0
TABLE
2
VPORT
5
8
100
AcDbSymbolTable
0
ENDTAB
0
TABLE
2
LTYPE
5
5
100
AcDbSymbolTable
0
LTYPE
5
14
100
AcDbSymbolTableRecord
100
AcDbLinetypeTableRecord
2
BYBLOCK
70
0
0
LTYPE
5
15
100
AcDbSymbolTableRecord
100
AcDbLinetypeTableRecord
2
BYLAYER
70
0
0
ENDTAB
0
TABLE
2
LAYER
5
2
100
AcDbSymbolTable
70
2
0
LAYER
5
50
100
AcDbSymbolTableRecord
100
AcDbLayerTableRecord
2
0
70
0
6
CONTINUOUS
0
ENDTAB
0
TABLE
2
STYLE
5
3
100
AcDbSymbolTable
70
1
0
STYLE
5
11
100
AcDbSymbolTableRecord
100
AcDbTextStyleTableRecord
2
STANDARD
70
0
0
ENDTAB
0
TABLE
2
VIEW
5
6
100
AcDbSymbolTable
70
0
0
ENDTAB
0
TABLE
2
UCS
5
7
100
AcDbSymbolTable
70
0
0
ENDTAB
0
TABLE
2
APPID
5
9
100
AcDbSymbolTable
70
2
0
APPID
5
12
100
AcDbSymbolTableRecord
100
AcDbRegAppTableRecord
2
ACAD
70
0
0
ENDTAB
0
TABLE
2
DIMSTYLE
5
A
100
AcDbSymbolTable
70
1
0
ENDTAB
0
TABLE
2
BLOCK_RECORD
5
1
100
AcDbSymbolTable
70
1
0
BLOCK_RECORD
5
1F
100
AcDbSymbolTableRecord
100
AcDbBlockTableRecord
2
*MODEL_SPACE
0
BLOCK_RECORD
5
1B
100
AcDbSymbolTableRecord
100
AcDbBlockTableRecord
2
*PAPER_SPACE
0
ENDTAB
0
ENDSEC
0
SECTION
2
BLOCKS
0
BLOCK
5
20
100
AcDbEntity
100
AcDbBlockBegin
2
*MODEL_SPACE
0
ENDBLK
5
21
100
AcDbEntity
100
AcDbBlockEnd
0
BLOCK
5
1C
100
AcDbEntity
100
AcDbBlockBegin
2
*PAPER_SPACE
0
ENDBLK
5
1D
100
AcDbEntity
100
AcDbBlockEnd
0
ENDSEC
0
SECTION
2
ENTITIES
0
CIRCLE
5
100
100
AcDbEntity
8
0
100
AcDbCircle
10
-15.399999999999995
20
-54.672479365765021
30
0
40
1.5500000000000003
210
0
220
0
230
1
0
CIRCLE
5
101
100
AcDbEntity
8
0
100
AcDbCircle
10
33.386202330212477
20
-45.952165280497006
30
0
40
1.549999999999998
210
0
220
0
230
1
0
CIRCLE
5
102
100
AcDbEntity
8
0
100
AcDbCircle
10
15.399999999999995
20
-54.672479365765021
30
0
40
1.5500000000000003
210
0
220
0
230
1
0
CIRCLE
5
103
100
AcDbEntity
8
0
100
AcDbCircle
10
-33.386202330212484
20
-45.952165280497006
30
0
40
1.549999999999998
210
0
220
0
230
1
0
CIRCLE
5
104
100
AcDbEntity
8
0
100
AcDbCircle
10
36.821488653217493
20
-9.2010000000002297
30
0
40
1.6000000000000014
210
0
220
-0
230
1
0
CIRCLE
5
105
100
AcDbEntity
8
0
100
AcDbCircle
10
-36.821488653217493
20
9.2010000000002261
30
0
40
1.6000000000000014
210
0
220
-0
230
1
0
CIRCLE
5
106
100
AcDbEntity
8
0
100
AcDbCircle
10
-36.821488653217408
20
-9.2009999999997127
30
0
40
1.6000000000000014
210
0
220
-0
230
1
0
CIRCLE
5
107
100
AcDbEntity
8
0
100
AcDbCircle
10
36.821488653217408
20
9.2009999999997092
30
0
40
1.6000000000000014
210
0
220
-0
230
1
0
CIRCLE
5
108
100
AcDbEntity
8
0
100
AcDbCircle
10
33.621488653217398
20
-22.50000000000005
30
0
40
1.6000000000000014
210
0
220
-0
230
1
0
CIRCLE
5
109
100
AcDbEntity
8
0
100
AcDbCircle
10
-31.555628574673857
20
17.587499999999977
30
0
40
1.6000000000000014
210
0
220
-0
230
1
0
CIRCLE
5
110
100
AcDbEntity
8
0
100
AcDbCircle
10
-33.621488653217398
20
-22.50000000000005
30
0
40
1.6000000000000014
210
0
220
-0
230
1
0
CIRCLE
5
111
100
AcDbEntity
8
0
100
AcDbCircle
10
31.555628574673857
20
17.587499999999977
30
0
40
1.6000000000000014
210
0
220
-0
230
1
0
LWPOLYLINE
5
112
100
AcDbEntity
8
0
100
AcDbPolyline
90
4
70
1
43
0.0
10
-30.321488653217436
20
6.0010000000002428
10
-41.321488653217536
20
6.0010000000002268
10
-41.321488653217536
20
12.401000000000224
10
-30.321488653217443
20
12.401000000000245
0
LWPOLYLINE
5
113
100
AcDbEntity
8
0
100
AcDbPolyline
90
8
70
1
43
0.0
10
-41.321488653217415
20
-12.400999999999758
10
-41.321488653217486
20
-6.0009999999997561
10
-29.321488653217372
20
-6.0009999999996486
10
-29.321488653217322
20
-12.400999999999648
10
-38.621488653217355
20
-12.400999999999733
10
-38.621488653217348
20
-13.400999999999733
10
-40.621488653217348
20
-13.400999999999751
10
-40.621488653217348
20
-12.400999999999724
0
LWPOLYLINE
5
114
100
AcDbEntity
8
0
100
AcDbPolyline
90
4
70
1
43
0.0
10
29.321488653217461
20
-6.0010000000002535
10
41.321488653217536
20
-6.001000000000233
10
41.321488653217536
20
-12.401000000000229
10
29.321488653217507
20
-12.401000000000257
0
LWPOLYLINE
5
115
100
AcDbEntity
8
0
100
AcDbPolyline
90
4
70
1
43
0.0
10
41.321488653217415
20
12.400999999999753
10
41.321488653217486
20
6.0009999999997508
10
30.321488653217376
20
6.0009999999996531
10
30.32148865321733
20
12.400999999999653
0
CIRCLE
5
116
100
AcDbEntity
8
0
100
AcDbCircle
10
33.621488653217398
20
-22.50000000000005
30
0
40
3.1999999999999984
210
0
220
-0
230
1
0
CIRCLE
5
117
100
AcDbEntity
8
0
100
AcDbCircle
10
-33.621488653217398
20
-22.50000000000005
30
0
40
3.1999999999999984
210
0
220
-0
230
1
0
CIRCLE
5
118
100
AcDbEntity
8
0
100
AcDbCircle
10
36.821488653217493
20
-9.2010000000002297
30
0
40
1.6000000000000014
210
0
220
0
230
1
0
CIRCLE
5
119
100
AcDbEntity
8
0
100
AcDbCircle
10
-36.821488653217493
20
9.2010000000002261
30
0
40
1.6000000000000014
210
0
220
0
230
1
0
CIRCLE
5
120
100
AcDbEntity
8
0
100
AcDbCircle
10
-36.821488653217408
20
-9.2009999999997127
30
0
40
1.6000000000000014
210
0
220
0
230
1
0
CIRCLE
5
121
100
AcDbEntity
8
0
100
AcDbCircle
10
36.821488653217408
20
9.2009999999997092
30
0
40
1.6000000000000014
210
0
220
0
230
1
0
CIRCLE
5
122
100
AcDbEntity
8
0
100
AcDbCircle
10
33.621488653217398
20
-22.50000000000005
30
0
40
1.6000000000000014
210
0
220
0
230
1
0
CIRCLE
5
123
100
AcDbEntity
8
0
100
AcDbCircle
10
-31.555628574673857
20
17.587499999999977
30
0
40
1.6000000000000014
210
0
220
0
230
1
0
CIRCLE
5
124
100
AcDbEntity
8
0
100
AcDbCircle
10
-33.621488653217398
20
-22.50000000000005
30
0
40
1.6000000000000014
210
0
220
0
230
1
0
CIRCLE
5
125
100
AcDbEntity
8
0
100
AcDbCircle
10
31.555628574673857
20
17.587499999999977
30
0
40
1.6000000000000014
210
0
220
0
230
1
0
CIRCLE
5
126
100
AcDbEntity
8
0
100
AcDbCircle
10
-29.906111287371925
20
48.28938297045557
30
0
40
1.6000000000000014
210
0
220
0
230
1
0
CIRCLE
5
127
100
AcDbEntity
8
0
100
AcDbCircle
10
29.906111287370347
20
48.289382970453339
30
0
40
1.6000000000000014
210
0
220
0
230
1
0
CIRCLE
5
128
100
AcDbEntity
8
0
100
AcDbCircle
10
-15.399999999999995
20
-54.672479365765021
30
0
40
1.5500000000000003
210
0
220
-0
230
1
0
CIRCLE
5
129
100
AcDbEntity
8
0
100
AcDbCircle
10
33.386202330212477
20
-45.952165280497006
30
0
40
1.549999999999998
210
0
220
-0
230
1
0
CIRCLE
5
130
100
AcDbEntity
8
0
100
AcDbCircle
10
15.399999999999995
20
-54.672479365765021
30
0
40
1.5500000000000003
210
0
220
-0
230
1
0
CIRCLE
5
131
100
AcDbEntity
8
0
100
AcDbCircle
10
-33.386202330212484
20
-45.952165280497006
30
0
40
1.549999999999998
210
0
220
-0
230
1
0
CIRCLE
5
132
100
AcDbEntity
8
0
100
AcDbCircle
10
-29.906111287371928
20
48.28938297045557
30
0
40
2.8500000000000005
210
0
220
-0
230
1
0
CIRCLE
5
133
100
AcDbEntity
8
0
100
AcDbCircle
10
29.906111287370347
20
48.289382970453339
30
0
40
2.8500000000000005
210
0
220
-0
230
1
0
LINE
5
134
100
AcDbEntity
8
0
100
AcDbLine
10
52.121488653217384
20
-1.4000000000000057
30
0
11
52.121488653217384
21
1.4000000000000057
31
0
0
LINE
5
135
100
AcDbEntity
8
0
100
AcDbLine
10
52.121488653217384
20
1.4000000000000057
30
0
11
52.121488653217384
21
1.4999999999999858
31
0
0
LINE
5
136
100
AcDbEntity
8
0
100
AcDbLine
10
52.021488653217403
20
1.4999999999999858
30
0
11
52.121488653217384
21
1.4999999999999858
31
0
0
LINE
5
137
100
AcDbEntity
8
0
100
AcDbLine
10
52.021488653217403
20
1.4999999999999858
30
0
11
42.121488653217433
21
1.4999999999999858
31
0
0
LINE
5
138
100
AcDbEntity
8
0
100
AcDbLine
10
52.121488653217384
20
-1.4000000000000057
30
0
11
52.121488653217384
21
-1.4999999999999858
31
0
0
LINE
5
139
100
AcDbEntity
8
0
100
AcDbLine
10
52.121488653217384
20
-1.4999999999999858
30
0
11
52.021488653217403
21
-1.4999999999999858
31
0
0
LINE
5
140
100
AcDbEntity
8
0
100
AcDbLine
10
52.021488653217403
20
-1.4999999999999858
30
0
11
42.121488653217433
21
-1.4999999999999858
31
0
0
LINE
5
141
100
AcDbEntity
8
0
100
AcDbLine
10
42.121488653217426
20
1.7000000000000171
30
0
11
41.321488653217443
21
1.7000000000000171
31
0
0
LINE
5
142
100
AcDbEntity
8
0
100
AcDbLine
10
42.121488653217426
20
1.7000000000000171
30
0
11
42.121488653217426
21
-1.7000000000000171
31
0
0
LINE
5
143
100
AcDbEntity
8
0
100
AcDbLine
10
42.121488653217426
20
-1.7000000000000171
30
0
11
41.321488653217443
21
-1.7000000000000171
31
0
0
LINE
5
144
100
AcDbEntity
8
0
100
AcDbLine
10
41.321488653217443
20
5.5000000000000071
30
0
11
41.321488653217443
21
-5.4999999999999716
31
0
0
LINE
5
145
100
AcDbEntity
8
0
100
AcDbLine
10
41.321488653217443
20
6.0000000000000142
30
0
11
41.321488653217443
21
5.5000000000000071
31
0
0
LINE
5
146
100
AcDbEntity
8
0
100
AcDbLine
10
41.221488653217442
20
6.0000000000000142
30
0
11
41.321488653217443
21
6.0000000000000142
31
0
0
LINE
5
147
100
AcDbEntity
8
0
100
AcDbLine
10
40.62148865321744
20
6.0000000000000142
30
0
11
41.221488653217442
21
6.0000000000000142
31
0
0
LINE
5
148
100
AcDbEntity
8
0
100
AcDbLine
10
40.62148865321744
20
6.0000000000000142
30
0
11
40.521488653217418
21
6.0000000000000142
31
0
0
LINE
5
149
100
AcDbEntity
8
0
100
AcDbLine
10
40.521488653217418
20
6.0000000000000142
30
0
11
40.521488653217418
21
5.5000000000000071
31
0
0
LINE
5
150
100
AcDbEntity
8
0
100
AcDbLine
10
40.521488653217418
20
6.0000000000000142
30
0
11
36.32148865321745
21
6.0000000000000142
31
0
0
LINE
5
151
100
AcDbEntity
8
0
100
AcDbLine
10
40.521488653217418
20
-5.4999999999999716
30
0
11
40.521488653217418
21
5.5000000000000071
31
0
0
LINE
5
152
100
AcDbEntity
8
0
100
AcDbLine
10
36.321488653217443
20
5.5000000000000071
30
0
11
36.32148865321745
21
6.0000000000000142
31
0
0
LINE
5
153
100
AcDbEntity
8
0
100
AcDbLine
10
36.32148865321745
20
6.0000000000000142
30
0
11
36.221488653217421
21
6.0000000000000142
31
0
0
LINE
5
154
100
AcDbEntity
8
0
100
AcDbLine
10
36.321488653217443
20
5.5000000000000071
30
0
11
36.321488653217443
21
-5.4999999999999716
31
0
0
LINE
5
155
100
AcDbEntity
8
0
100
AcDbLine
10
35.62148865321744
20
6.0000000000000142
30
0
11
36.221488653217421
21
6.0000000000000142
31
0
0
LINE
5
156
100
AcDbEntity
8
0
100
AcDbLine
10
35.62148865321744
20
6.0000000000000142
30
0
11
35.52148865321746
21
6.0000000000000142
31
0
0
LINE
5
157
100
AcDbEntity
8
0
100
AcDbLine
10
35.52148865321746
20
6.0000000000000142
30
0
11
35.52148865321746
21
5.5000000000000071
31
0
0
LINE
5
158
100
AcDbEntity
8
0
100
AcDbLine
10
35.52148865321746
20
-5.4999999999999716
30
0
11
35.52148865321746
21
5.5000000000000071
31
0
0
LINE
5
159
100
AcDbEntity
8
0
100
AcDbLine
10
35.52148865321746
20
6.0000000000000142
30
0
11
33.12148865321744
21
6.0000000000000142
31
0
0
LINE
5
160
100
AcDbEntity
8
0
100
AcDbLine
10
33.12148865321744
20
6.0000000000000142
30
0
11
33.121488653217455
21
5.5000000000000071
31
0
0
LINE
5
161
100
AcDbEntity
8
0
100
AcDbLine
10
33.02148865321746
20
6.0000000000000142
30
0
11
33.12148865321744
21
6.0000000000000142
31
0
0
LINE
5
162
100
AcDbEntity
8
0
100
AcDbLine
10
33.121488653217455
20
5.5000000000000071
30
0
11
33.121488653217455
21
-5.4999999999999716
31
0
0
LINE
5
163
100
AcDbEntity
8
0
100
AcDbLine
10
32.421488653217452
20
6.0000000000000142
30
0
11
33.02148865321746
21
6.0000000000000142
31
0
0
LINE
5
164
100
AcDbEntity
8
0
100
AcDbLine
10
32.321488653217457
20
6.0000000000000142
30
0
11
32.421488653217452
21
6.0000000000000142
31
0
0
LINE
5
165
100
AcDbEntity
8
0
100
AcDbLine
10
32.321488653217457
20
5.5000000000000071
30
0
11
32.321488653217457
21
6.0000000000000142
31
0
0
LINE
5
166
100
AcDbEntity
8
0
100
AcDbLine
10
32.321488653217457
20
-5.4999999999999716
30
0
11
32.321488653217457
21
5.5000000000000071
31
0
0
LINE
5
167
100
AcDbEntity
8
0
100
AcDbLine
10
32.321488653217457
20
6.0000000000000142
30
0
11
16.821488653217525
21
6.0000000000000142
31
0
0
LINE
5
168
100
AcDbEntity
8
0
100
AcDbLine
10
41.321488653217443
20
-5.4999999999999716
30
0
11
41.321488653217443
21
-5.9999999999999787
31
0
0
LINE
5
169
100
AcDbEntity
8
0
100
AcDbLine
10
41.321488653217443
20
-5.9999999999999787
30
0
11
41.221488653217421
21
-5.9999999999999787
31
0
0
LINE
5
170
100
AcDbEntity
8
0
100
AcDbLine
10
41.221488653217442
20
-5.9999999999999787
30
0
11
40.62148865321744
21
-5.9999999999999787
31
0
0
LINE
5
171
100
AcDbEntity
8
0
100
AcDbLine
10
40.62148865321744
20
-5.9999999999999787
30
0
11
40.521488653217418
21
-5.9999999999999787
31
0
0
LINE
5
172
100
AcDbEntity
8
0
100
AcDbLine
10
40.521488653217418
20
-5.9999999999999787
30
0
11
40.521488653217418
21
-5.4999999999999716
31
0
0
LINE
5
173
100
AcDbEntity
8
0
100
AcDbLine
10
40.521488653217418
20
-5.9999999999999787
30
0
11
36.32148865321745
21
-5.9999999999999787
31
0
0
LINE
5
174
100
AcDbEntity
8
0
100
AcDbLine
10
36.32148865321745
20
-5.9999999999999787
30
0
11
36.321488653217443
21
-5.4999999999999716
31
0
0
LINE
5
175
100
AcDbEntity
8
0
100
AcDbLine
10
36.221488653217421
20
-5.9999999999999787
30
0
11
36.32148865321745
21
-5.9999999999999787
31
0
0
LINE
5
176
100
AcDbEntity
8
0
100
AcDbLine
10
36.221488653217421
20
-5.9999999999999787
30
0
11
35.62148865321744
21
-5.9999999999999787
31
0
0
LINE
5
177
100
AcDbEntity
8
0
100
AcDbLine
10
35.62148865321744
20
-5.9999999999999787
30
0
11
35.52148865321746
21
-5.9999999999999787
31
0
0
LINE
5
178
100
AcDbEntity
8
0
100
AcDbLine
10
35.52148865321746
20
-5.9999999999999787
30
0
11
35.52148865321746
21
-5.4999999999999716
31
0
0
LINE
5
179
100
AcDbEntity
8
0
100
AcDbLine
10
35.52148865321746
20
-5.9999999999999787
30
0
11
33.12148865321744
21
-5.9999999999999787
31
0
0
LINE
5
180
100
AcDbEntity
8
0
100
AcDbLine
10
33.12148865321744
20
-5.9999999999999787
30
0
11
33.121488653217455
21
-5.4999999999999716
31
0
0
LINE
5
181
100
AcDbEntity
8
0
100
AcDbLine
10
33.02148865321746
20
-5.9999999999999787
30
0
11
33.12148865321744
21
-5.9999999999999787
31
0
0
LINE
5
182
100
AcDbEntity
8
0
100
AcDbLine
10
33.02148865321746
20
-5.9999999999999787
30
0
11
32.421488653217452
21
-5.9999999999999787
31
0
0
LINE
5
183
100
AcDbEntity
8
0
100
AcDbLine
10
32.421488653217452
20
-5.9999999999999787
30
0
11
32.321488653217457
21
-5.9999999999999787
31
0
0
LINE
5
184
100
AcDbEntity
8
0
100
AcDbLine
10
32.321488653217457
20
-5.9999999999999787
30
0
11
32.321488653217457
21
-5.4999999999999716
31
0
0
LINE
5
185
100
AcDbEntity
8
0
100
AcDbLine
10
32.321488653217457
20
-5.9999999999999787
30
0
11
16.821488653217525
21
-5.9999999999999787
31
0
0
LINE
5
186
100
AcDbEntity
8
0
100
AcDbLine
10
16.721488653217502
20
6.0000000000000142
30
0
11
16.821488653217518
21
6.0000000000000142
31
0
0
LINE
5
187
100
AcDbEntity
8
0
100
AcDbLine
10
16.821488653217518
20
6.0000000000000142
30
0
11
16.821488653217518
21
5.9000000000000341
31
0
0
LINE
5
188
100
AcDbEntity
8
0
100
AcDbLine
10
16.821488653217518
20
-5.8999999999999631
30
0
11
16.821488653217518
21
5.9000000000000341
31
0
0
LINE
5
189
100
AcDbEntity
8
0
100
AcDbLine
10
16.721488653217502
20
6.0000000000000142
30
0
11
15.921488653217521
21
6.0000000000000142
31
0
0
LINE
5
190
100
AcDbEntity
8
0
100
AcDbLine
10
15.921488653217519
20
6.0000000000000142
30
0
11
15.821488653217504
21
6.0000000000000142
31
0
0
LINE
5
191
100
AcDbEntity
8
0
100
AcDbLine
10
15.821488653217504
20
6.0000000000000142
30
0
11
15.821488653217504
21
5.9000000000000341
31
0
0
LINE
5
192
100
AcDbEntity
8
0
100
AcDbLine
10
15.821488653217504
20
5.9000000000000341
30
0
11
15.821488653217504
21
-5.8999999999999631
31
0
0
LINE
5
193
100
AcDbEntity
8
0
100
AcDbLine
10
11.421488653217526
20
4.4999999999999929
30
0
11
15.821488653217511
21
4.4999999999999929
31
0
0
LINE
5
194
100
AcDbEntity
8
0
100
AcDbLine
10
16.821488653217518
20
-5.8999999999999631
30
0
11
16.821488653217518
21
-5.9999999999999787
31
0
0
LINE
5
195
100
AcDbEntity
8
0
100
AcDbLine
10
16.721488653217502
20
-5.9999999999999787
30
0
11
16.821488653217518
21
-5.9999999999999787
31
0
0
LINE
5
196
100
AcDbEntity
8
0
100
AcDbLine
10
15.921488653217519
20
-5.9999999999999787
30
0
11
16.721488653217499
21
-5.9999999999999787
31
0
0
LINE
5
197
100
AcDbEntity
8
0
100
AcDbLine
10
15.921488653217519
20
-5.9999999999999787
30
0
11
15.821488653217504
21
-5.9999999999999787
31
0
0
LINE
5
198
100
AcDbEntity
8
0
100
AcDbLine
10
15.821488653217504
20
-5.9999999999999787
30
0
11
15.821488653217504
21
-5.8999999999999631
31
0
0
LINE
5
199
100
AcDbEntity
8
0
100
AcDbLine
10
11.421488653217526
20
-4.4999999999999929
30
0
11
15.821488653217511
21
-4.4999999999999929
31
0
0
LINE
5
200
100
AcDbEntity
8
0
100
AcDbLine
10
11.321488653217529
20
-4.4999999999999929
30
0
11
11.421488653217526
21
-4.4999999999999929
31
0
0
LINE
5
201
100
AcDbEntity
8
0
100
AcDbLine
10
11.321488653217529
20
-4.4000000000000128
30
0
11
11.321488653217529
21
-4.4999999999999929
31
0
0
LINE
5
202
100
AcDbEntity
8
0
100
AcDbLine
10
11.321488653217529
20
4.4000000000000128
30
0
11
11.321488653217529
21
-4.4000000000000128
31
0
0
LINE
5
203
100
AcDbEntity
8
0
100
AcDbLine
10
11.321488653217529
20
4.4999999999999929
30
0
11
11.421488653217526
21
4.4999999999999929
31
0
0
LINE
5
204
100
AcDbEntity
8
0
100
AcDbLine
10
11.321488653217529
20
4.4000000000000128
30
0
11
11.321488653217529
21
4.4999999999999929
31
0
0
LINE
5
205
100
AcDbEntity
8
0
100
AcDbLine
10
10.42148865321753
20
0.50000000000000711
30
0
11
11.321488653217527
21
0.50000000000000711
31
0
0
LINE
5
206
100
AcDbEntity
8
0
100
AcDbLine
10
10.42148865321753
20
-0.50000000000000711
30
0
11
11.321488653217527
21
-0.50000000000000711
31
0
0
LINE
5
207
100
AcDbEntity
8
0
100
AcDbLine
10
10.321488653217532
20
-0.50000000000000711
30
0
11
10.42148865321753
21
-0.50000000000000711
31
0
0
LINE
5
208
100
AcDbEntity
8
0
100
AcDbLine
10
10.321488653217532
20
-0.39999999999999147
30
0
11
10.321488653217532
21
-0.50000000000000711
31
0
0
LINE
5
209
100
AcDbEntity
8
0
100
AcDbLine
10
10.321488653217532
20
0.39999999999999147
30
0
11
10.321488653217532
21
0.50000000000000711
31
0
0
LINE
5
210
100
AcDbEntity
8
0
100
AcDbLine
10
10.321488653217532
20
0.50000000000000711
30
0
11
10.42148865321753
21
0.50000000000000711
31
0
0
LINE
5
211
100
AcDbEntity
8
0
100
AcDbLine
10
-10.321488653217497
20
-0.39999999999974278
30
0
11
-10.321488653217497
21
0.40000000000023905
31
0
0
LINE
5
212
100
AcDbEntity
8
0
100
AcDbLine
10
-10.321488653217497
20
0.40000000000024016
30
0
11
-10.321488653217497
21
0.50000000000025568
31
0
0
LINE
5
213
100
AcDbEntity
8
0
100
AcDbLine
10
-10.321488653217497
20
0.50000000000025568
30
0
11
-10.421488653217494
21
0.5000000000002558
31
0
0
LINE
5
214
100
AcDbEntity
8
0
100
AcDbLine
10
-10.421488653217494
20
0.5000000000002558
30
0
11
-11.321488653217491
21
0.50000000000025591
31
0
0
LINE
5
215
100
AcDbEntity
8
0
100
AcDbLine
10
-11.321488653217493
20
-4.3999999999997641
30
0
11
-11.321488653217491
21
4.400000000000249
31
0
0
LINE
5
216
100
AcDbEntity
8
0
100
AcDbLine
10
-11.421488653217491
20
4.5000000000002416
30
0
11
-11.421488653217493
21
-4.4999999999997318
31
0
0
LINE
5
217
100
AcDbEntity
8
0
100
AcDbLine
10
-10.421488653217494
20
-0.49999999999975842
30
0
11
-11.321488653217491
21
-0.4999999999997583
31
0
0
LINE
5
218
100
AcDbEntity
8
0
100
AcDbLine
10
-10.321488653217497
20
-0.49999999999975842
30
0
11
-10.421488653217494
21
-0.49999999999975842
31
0
0
LINE
5
219
100
AcDbEntity
8
0
100
AcDbLine
10
-10.321488653217497
20
-0.39999999999974278
30
0
11
-10.321488653217497
21
-0.49999999999975842
31
0
0
LINE
5
220
100
AcDbEntity
8
0
100
AcDbLine
10
-11.321488653217493
20
4.5000000000002416
30
0
11
-11.421488653217491
21
4.5000000000002416
31
0
0
LINE
5
221
100
AcDbEntity
8
0
100
AcDbLine
10
-11.321488653217493
20
4.4000000000002615
30
0
11
-11.321488653217493
21
4.5000000000002416
31
0
0
LINE
5
222
100
AcDbEntity
8
0
100
AcDbLine
10
-11.421488653217491
20
4.5000000000002416
30
0
11
-15.821488653217479
21
4.5000000000002425
31
0
0
LINE
5
223
100
AcDbEntity
8
0
100
AcDbLine
10
-15.821488653217486
20
-5.8999999999997499
30
0
11
-15.821488653217484
21
5.9000000000002313
31
0
0
LINE
5
224
100
AcDbEntity
8
0
100
AcDbLine
10
-16.8214886532175
20
5.9000000000002117
30
0
11
-16.821488653217504
21
-5.8999999999997694
31
0
0
LINE
5
225
100
AcDbEntity
8
0
100
AcDbLine
10
-15.921488653217502
20
6.0000000000002274
30
0
11
-15.821488653217486
21
6.0000000000002274
31
0
0
LINE
5
226
100
AcDbEntity
8
0
100
AcDbLine
10
-15.821488653217486
20
6.0000000000002274
30
0
11
-15.821488653217486
21
5.9000000000002117
31
0
0
LINE
5
227
100
AcDbEntity
8
0
100
AcDbLine
10
-15.921488653217502
20
6.0000000000002274
30
0
11
-16.721488653217484
21
6.0000000000002274
31
0
0
LINE
5
228
100
AcDbEntity
8
0
100
AcDbLine
10
-16.721488653217484
20
6.0000000000002274
30
0
11
-16.8214886532175
21
6.0000000000002274
31
0
0
LINE
5
229
100
AcDbEntity
8
0
100
AcDbLine
10
-16.8214886532175
20
5.9000000000002117
30
0
11
-16.8214886532175
21
6.0000000000002274
31
0
0
LINE
5
230
100
AcDbEntity
8
0
100
AcDbLine
10
-32.321488653217436
20
6.0000000000002274
30
0
11
-16.821488653217486
21
6.0000000000002256
31
0
0
LINE
5
231
100
AcDbEntity
8
0
100
AcDbLine
10
-11.321488653217493
20
-4.3999999999997641
30
0
11
-11.321488653217493
21
-4.4999999999997442
31
0
0
LINE
5
232
100
AcDbEntity
8
0
100
AcDbLine
10
-11.321488653217493
20
-4.4999999999997442
30
0
11
-11.421488653217491
21
-4.4999999999997442
31
0
0
LINE
5
233
100
AcDbEntity
8
0
100
AcDbLine
10
-11.421488653217491
20
-4.4999999999997442
30
0
11
-15.821488653217479
21
-4.4999999999997433
31
0
0
LINE
5
234
100
AcDbEntity
8
0
100
AcDbLine
10
-15.821488653217486
20
-5.99999999999973
30
0
11
-15.821488653217486
21
-5.8999999999997499
31
0
0
LINE
5
235
100
AcDbEntity
8
0
100
AcDbLine
10
-15.921488653217502
20
-5.99999999999973
30
0
11
-15.821488653217486
21
-5.99999999999973
31
0
0
LINE
5
236
100
AcDbEntity
8
0
100
AcDbLine
10
-16.721488653217484
20
-5.99999999999973
30
0
11
-15.921488653217502
21
-5.99999999999973
31
0
0
LINE
5
237
100
AcDbEntity
8
0
100
AcDbLine
10
-16.721488653217484
20
-5.99999999999973
30
0
11
-16.8214886532175
21
-5.99999999999973
31
0
0
LINE
5
238
100
AcDbEntity
8
0
100
AcDbLine
10
-16.8214886532175
20
-5.99999999999973
30
0
11
-16.8214886532175
21
-5.8999999999997499
31
0
0
LINE
5
239
100
AcDbEntity
8
0
100
AcDbLine
10
-32.321488653217436
20
-5.99999999999973
30
0
11
-16.821488653217486
21
-5.9999999999997318
31
0
0
LINE
5
240
100
AcDbEntity
8
0
100
AcDbLine
10
-32.321488653217436
20
-5.4999999999997229
30
0
11
-32.321488653217436
21
-5.99999999999973
31
0
0
LINE
5
241
100
AcDbEntity
8
0
100
AcDbLine
10
-32.321488653217436
20
-5.99999999999973
30
0
11
-32.421488653217438
21
-5.99999999999973
31
0
0
LINE
5
242
100
AcDbEntity
8
0
100
AcDbLine
10
-32.421488653217438
20
-5.99999999999973
30
0
11
-33.021488653217439
21
-5.99999999999973
31
0
0
LINE
5
243
100
AcDbEntity
8
0
100
AcDbLine
10
-32.321488653217436
20
5.5000000000002203
30
0
11
-32.321488653217443
21
-5.4999999999997424
31
0
0
LINE
5
244
100
AcDbEntity
8
0
100
AcDbLine
10
-33.021488653217439
20
-5.99999999999973
30
0
11
-33.12148865321744
21
-5.99999999999973
31
0
0
LINE
5
245
100
AcDbEntity
8
0
100
AcDbLine
10
-33.12148865321744
20
-5.99999999999973
30
0
11
-33.12148865321744
21
-5.4999999999997238
31
0
0
LINE
5
246
100
AcDbEntity
8
0
100
AcDbLine
10
-35.52148865321746
20
-5.99999999999973
30
0
11
-33.12148865321744
21
-5.99999999999973
31
0
0
LINE
5
247
100
AcDbEntity
8
0
100
AcDbLine
10
-33.12148865321744
20
-5.4999999999997229
30
0
11
-33.121488653217433
21
5.5000000000002398
31
0
0
LINE
5
248
100
AcDbEntity
8
0
100
AcDbLine
10
-35.52148865321746
20
-5.99999999999973
30
0
11
-35.52148865321746
21
-5.4999999999997238
31
0
0
LINE
5
249
100
AcDbEntity
8
0
100
AcDbLine
10
-35.52148865321746
20
5.5000000000002203
30
0
11
-35.52148865321746
21
-5.4999999999997424
31
0
0
LINE
5
250
100
AcDbEntity
8
0
100
AcDbLine
10
-35.62148865321744
20
-5.99999999999973
30
0
11
-35.52148865321746
21
-5.99999999999973
31
0
0
LINE
5
251
100
AcDbEntity
8
0
100
AcDbLine
10
-35.62148865321744
20
-5.99999999999973
30
0
11
-36.221488653217421
21
-5.99999999999973
31
0
0
LINE
5
252
100
AcDbEntity
8
0
100
AcDbLine
10
-36.321488653217443
20
-5.4999999999997229
30
0
11
-36.321488653217436
21
5.5000000000002398
31
0
0
LINE
5
253
100
AcDbEntity
8
0
100
AcDbLine
10
-36.321488653217443
20
-5.4999999999997229
30
0
11
-36.321488653217443
21
-5.9999999999997291
31
0
0
LINE
5
254
100
AcDbEntity
8
0
100
AcDbLine
10
-36.321488653217443
20
-5.9999999999997291
30
0
11
-36.221488653217421
21
-5.99999999999973
31
0
0
LINE
5
255
100
AcDbEntity
8
0
100
AcDbLine
10
-40.521488653217418
20
-5.99999999999973
30
0
11
-36.321488653217443
21
-5.9999999999997291
31
0
0
LINE
5
256
100
AcDbEntity
8
0
100
AcDbLine
10
-40.521488653217418
20
-5.99999999999973
30
0
11
-40.521488653217418
21
-5.4999999999997238
31
0
0
LINE
5
257
100
AcDbEntity
8
0
100
AcDbLine
10
-40.62148865321744
20
-5.99999999999973
30
0
11
-40.521488653217418
21
-5.99999999999973
31
0
0
LINE
5
258
100
AcDbEntity
8
0
100
AcDbLine
10
-40.521488653217418
20
5.5000000000002203
30
0
11
-40.521488653217418
21
-5.4999999999997424
31
0
0
LINE
5
259
100
AcDbEntity
8
0
100
AcDbLine
10
-40.62148865321744
20
-5.99999999999973
30
0
11
-41.221488653217442
21
-5.99999999999973
31
0
0
LINE
5
260
100
AcDbEntity
8
0
100
AcDbLine
10
-41.221488653217442
20
-5.99999999999973
30
0
11
-41.321488653217457
21
-5.99999999999973
31
0
0
LINE
5
261
100
AcDbEntity
8
0
100
AcDbLine
10
-41.321488653217457
20
-5.99999999999973
30
0
11
-41.321488653217457
21
-5.4999999999997238
31
0
0
LINE
5
262
100
AcDbEntity
8
0
100
AcDbLine
10
-41.321488653217457
20
-5.4999999999997229
30
0
11
-41.321488653217457
21
5.5000000000002398
31
0
0
LINE
5
263
100
AcDbEntity
8
0
100
AcDbLine
10
-32.321488653217436
20
6.0000000000002274
30
0
11
-32.321488653217436
21
5.5000000000002212
31
0
0
LINE
5
264
100
AcDbEntity
8
0
100
AcDbLine
10
-32.421488653217438
20
6.0000000000002274
30
0
11
-32.321488653217436
21
6.0000000000002274
31
0
0
LINE
5
265
100
AcDbEntity
8
0
100
AcDbLine
10
-33.021488653217439
20
6.0000000000002274
30
0
11
-32.421488653217438
21
6.0000000000002274
31
0
0
LINE
5
266
100
AcDbEntity
8
0
100
AcDbLine
10
-33.021488653217439
20
6.0000000000002274
30
0
11
-33.12148865321744
21
6.0000000000002274
31
0
0
LINE
5
267
100
AcDbEntity
8
0
100
AcDbLine
10
-33.12148865321744
20
6.0000000000002274
30
0
11
-33.12148865321744
21
5.5000000000002212
31
0
0
LINE
5
268
100
AcDbEntity
8
0
100
AcDbLine
10
-35.52148865321746
20
6.0000000000002274
30
0
11
-33.12148865321744
21
6.0000000000002274
31
0
0
LINE
5
269
100
AcDbEntity
8
0
100
AcDbLine
10
-35.52148865321746
20
6.0000000000002274
30
0
11
-35.52148865321746
21
5.5000000000002212
31
0
0
LINE
5
270
100
AcDbEntity
8
0
100
AcDbLine
10
-35.62148865321744
20
6.0000000000002274
30
0
11
-35.52148865321746
21
6.0000000000002274
31
0
0
LINE
5
271
100
AcDbEntity
8
0
100
AcDbLine
10
-36.221488653217421
20
6.0000000000002274
30
0
11
-35.62148865321744
21
6.0000000000002274
31
0
0
LINE
5
272
100
AcDbEntity
8
0
100
AcDbLine
10
-36.221488653217421
20
6.0000000000002274
30
0
11
-36.321488653217443
21
6.0000000000002274
31
0
0
LINE
5
273
100
AcDbEntity
8
0
100
AcDbLine
10
-36.321488653217443
20
6.0000000000002274
30
0
11
-36.321488653217443
21
5.5000000000002212
31
0
0
LINE
5
274
100
AcDbEntity
8
0
100
AcDbLine
10
-40.521488653217418
20
6.0000000000002274
30
0
11
-36.321488653217443
21
6.0000000000002274
31
0
0
LINE
5
275
100
AcDbEntity
8
0
100
AcDbLine
10
-40.521488653217418
20
6.0000000000002274
30
0
11
-40.521488653217418
21
5.5000000000002212
31
0
0
LINE
5
276
100
AcDbEntity
8
0
100
AcDbLine
10
-40.62148865321744
20
6.0000000000002274
30
0
11
-40.521488653217418
21
6.0000000000002274
31
0
0
LINE
5
277
100
AcDbEntity
8
0
100
AcDbLine
10
-41.221488653217442
20
6.0000000000002274
30
0
11
-40.62148865321744
21
6.0000000000002274
31
0
0
LINE
5
278
100
AcDbEntity
8
0
100
AcDbLine
10
-41.321488653217457
20
6.0000000000002274
30
0
11
-41.221488653217442
21
6.0000000000002274
31
0
0
LINE
5
279
100
AcDbEntity
8
0
100
AcDbLine
10
-41.321488653217457
20
5.5000000000002203
30
0
11
-41.321488653217457
21
6.0000000000002274
31
0
0
LINE
5
280
100
AcDbEntity
8
0
100
AcDbLine
10
-42.12148865321744
20
1.7000000000002657
30
0
11
-41.321488653217457
21
1.7000000000002657
31
0
0
LINE
5
281
100
AcDbEntity
8
0
100
AcDbLine
10
-42.12148865321744
20
-1.6999999999997684
30
0
11
-42.12148865321744
21
1.7000000000002613
31
0
0
LINE
5
282
100
AcDbEntity
8
0
100
AcDbLine
10
-52.021488653217425
20
1.50000000000027
30
0
11
-42.12148865321744
21
1.5000000000002689
31
0
0
LINE
5
283
100
AcDbEntity
8
0
100
AcDbLine
10
-42.12148865321744
20
-1.6999999999997684
30
0
11
-41.321488653217457
21
-1.6999999999997684
31
0
0
LINE
5
284
100
AcDbEntity
8
0
100
AcDbLine
10
-52.021488653217425
20
-1.4999999999997016
30
0
11
-42.12148865321744
21
-1.4999999999997027
31
0
0
LINE
5
285
100
AcDbEntity
8
0
100
AcDbLine
10
-52.121488653217405
20
1.50000000000027
30
0
11
-52.021488653217425
21
1.50000000000027
31
0
0
LINE
5
286
100
AcDbEntity
8
0
100
AcDbLine
10
-52.121488653217405
20
1.4000000000002899
30
0
11
-52.121488653217405
21
1.50000000000027
31
0
0
LINE
5
287
100
AcDbEntity
8
0
100
AcDbLine
10
-52.121488653217405
20
1.4000000000002899
30
0
11
-52.121488653217405
21
-1.3999999999997175
31
0
0
LINE
5
288
100
AcDbEntity
8
0
100
AcDbLine
10
-52.021488653217425
20
-1.4999999999997016
30
0
11
-52.121488653217405
21
-1.4999999999997016
31
0
0
LINE
5
289
100
AcDbEntity
8
0
100
AcDbLine
10
-52.121488653217405
20
-1.3999999999997215
30
0
11
-52.121488653217405
21
-1.4999999999997016
31
0
0
CIRCLE
5
290
100
AcDbEntity
8
0
100
AcDbCircle
10
31.555628574673857
20
17.587499999999977
30
0
40
3.2000000000000028
210
0
220
-0
230
1
0
CIRCLE
5
291
100
AcDbEntity
8
0
100
AcDbCircle
10
-31.555628574673857
20
17.587499999999977
30
0
40
3.2000000000000028
210
0
220
-0
230
1
0
CIRCLE
5
292
100
AcDbEntity
8
0
100
AcDbCircle
10
33.386202330212477
20
-45.952165280497006
30
0
40
2.850000000000001
210
0
220
-0
230
1
0
CIRCLE
5
293
100
AcDbEntity
8
0
100
AcDbCircle
10
36.821488653217493
20
-9.2010000000002297
30
0
40
2.850000000000001
210
0
220
-0
230
1
0
CIRCLE
5
294
100
AcDbEntity
8
0
100
AcDbCircle
10
36.821488653217408
20
9.2009999999997092
30
0
40
2.8500000000000032
210
0
220
-0
230
1
0
CIRCLE
5
295
100
AcDbEntity
8
0
100
AcDbCircle
10
-36.821488653217493
20
9.2010000000002261
30
0
40
2.850000000000001
210
0
220
-0
230
1
0
CIRCLE
5
296
100
AcDbEntity
8
0
100
AcDbCircle
10
-36.821488653217408
20
-9.2009999999997127
30
0
40
2.8500000000000063
210
0
220
-0
230
1
0
CIRCLE
5
297
100
AcDbEntity
8
0
100
AcDbCircle
10
-33.386202330212484
20
-45.952165280497006
30
0
40
2.850000000000001
210
0
220
-0
230
1
0
CIRCLE
5
298
100
AcDbEntity
8
0
100
AcDbCircle
10
-15.399999999999995
20
-54.672479365765021
30
0
40
2.8500000000000005
210
0
220
0
230
1
0
CIRCLE
5
299
100
AcDbEntity
8
0
100
AcDbCircle
10
15.399999999999995
20
-54.672479365765021
30
0
40
2.8500000000000005
210
0
220
0
230
1
0
LINE
5
300
100
AcDbEntity
8
0
100
AcDbLine
10
-28.500095810000179
20
-13.361666835004129
30
0
11
-28.500095810000179
21
-45.628333164995489
31
0
0
LINE
5
301
100
AcDbEntity
8
0
100
AcDbLine
10
-28.500095810000179
20
-52.989999999999853
30
0
11
-28.500095810000179
21
-45.628333164995489
31
0
0
LINE
5
302
100
AcDbEntity
8
0
100
AcDbLine
10
-8.0783434684048689
20
-52.989999999999853
30
0
11
-28.500095810000179
21
-52.989999999999853
31
0
0
LINE
5
303
100
AcDbEntity
8
0
100
AcDbLine
10
8.0783434684048636
20
-52.989999999999853
30
0
11
-8.0783434684048689
21
-52.989999999999853
31
0
0
LINE
5
304
100
AcDbEntity
8
0
100
AcDbLine
10
8.0783434684048636
20
-52.989999999999853
30
0
11
28.500000000000021
21
-52.989999999999853
31
0
0
LINE
5
305
100
AcDbEntity
8
0
100
AcDbLine
10
28.500000000000028
20
-45.628333164995489
30
0
11
28.500000000000021
21
-52.989999999999853
31
0
0
LINE
5
306
100
AcDbEntity
8
0
100
AcDbLine
10
28.500000000000028
20
-45.628333164995489
30
0
11
28.500000000000028
21
-13.361666835004126
31
0
0
LINE
5
307
100
AcDbEntity
8
0
100
AcDbLine
10
28.500000000000028
20
-13.361666835004124
30
0
11
28.500000000000028
21
-5.9999999999997797
31
0
0
LINE
5
308
100
AcDbEntity
8
0
100
AcDbLine
10
28.500000000000028
20
-5.9999999999997797
30
0
11
8.0783434684048672
21
-5.9999999999997842
31
0
0
LINE
5
309
100
AcDbEntity
8
0
100
AcDbLine
10
-28.500095810000179
20
-5.9999999999997833
30
0
11
-8.0783434684048672
21
-5.9999999999997824
31
0
0
LINE
5
310
100
AcDbEntity
8
0
100
AcDbLine
10
-28.500095810000179
20
-13.361666835004129
30
0
11
-28.500095810000179
21
-5.9999999999997833
31
0
0
LINE
5
311
100
AcDbEntity
8
0
100
AcDbLine
10
-8.0783434684048689
20
-5.9999999999997833
30
0
11
8.0783434684048618
21
-5.9999999999997824
31
0
0
LINE
5
312
100
AcDbEntity
8
0
100
AcDbLine
10
0
20
0
30
0
11
1.9999999999999996
21
-6.0715321659188248e-16
31
0
0
LINE
5
313
100
AcDbEntity
8
0
100
AcDbLine
10
0
20
0
30
0
11
-5.5511151231257827e-16
21
-2
31
0
0
ARC
5
314
100
AcDbEntity
8
0
100
AcDbCircle
10
0
20
0
30
0
40
60.000000000000007
210
0
220
-0
230
1
100
AcDbArc
50
58.229641245006036
51
121.77035875499402
0
ENDSEC
0
SECTION
2
OBJECTS
0
DICTIONARY
5
C
100
AcDbDictionary
3
ACAD_GROUP
350
D
3
ACAD_MLINESTYLE
350
17
0
DICTIONARY
5
D
100
AcDbDictionary
0
DICTIONARY
5
1A
330
C
100
AcDbDictionary
0
DICTIONARY
5
17
100
AcDbDictionary
0
ENDSEC
0
EOF
